<svg xmlns="http://www.w3.org/2000/svg" xmlns:xlink="http://www.w3.org/1999/xlink" contentStyleType="text/css" data-diagram-type="CLASS" height="881px" preserveAspectRatio="none" style="width:1037px;height:881px;background:#FFFFFF;" version="1.1" viewBox="0 0 1037 881" width="1037px" zoomAndPan="magnify"><defs/><g><!--cluster locadora--><g class="cluster" data-entity="locadora" data-source-line="27" data-uid="ent0005" id="cluster_locadora"><path d="M13.5,347 L82.6543,347 A3.75,3.75 0 0 1 85.1543,349.5 L92.1543,369.2969 L849.5,369.2969 A2.5,2.5 0 0 1 852,371.7969 L852,871.5 A2.5,2.5 0 0 1 849.5,874 L13.5,874 A2.5,2.5 0 0 1 11,871.5 L11,349.5 A2.5,2.5 0 0 1 13.5,347" fill="#FFFFFF" style="stroke:#000000;stroke-width:1;"/><line style="stroke:#000000;stroke-width:1;" x1="11" x2="92.1543" y1="369.2969" y2="369.2969"/><text fill="#000000" font-family="Verdana" font-size="14" font-weight="bold" lengthAdjust="spacing" textLength="68.1543" x="15" y="361.9951">locadora</text></g><!--cluster dvds--><g class="cluster" data-entity="dvds" data-source-line="26" data-uid="ent0003" id="cluster_dvds"><path d="M240.5,390 L279.002,390 A3.75,3.75 0 0 1 281.502,392.5 L288.502,412.2969 L825.5,412.2969 A2.5,2.5 0 0 1 828,414.7969 L828,847.5 A2.5,2.5 0 0 1 825.5,850 L240.5,850 A2.5,2.5 0 0 1 238,847.5 L238,392.5 A2.5,2.5 0 0 1 240.5,390" fill="#FFFFFF" style="stroke:#000000;stroke-width:1;"/><line style="stroke:#000000;stroke-width:1;" x1="238" x2="288.502" y1="412.2969" y2="412.2969"/><text fill="#000000" font-family="Verdana" font-size="14" font-weight="bold" lengthAdjust="spacing" textLength="37.502" x="242" y="404.9951">dvds</text></g><!--class Cliente--><g class="entity" data-entity="Cliente" data-source-line="72" data-uid="ent0009" id="entity_Cliente"><rect fill="#FFFFFF" height="141.7813" rx="2.5" ry="2.5" style="stroke:#000000;stroke-width:1;" width="191.5254" x="27" y="676"/><ellipse cx="94.4409" cy="690" fill="#FFFFFF" rx="9" ry="9" style="stroke:#000000;stroke-width:1;"/><path d="M97.4097,695.6406 Q96.8315,695.9375 96.1909,696.0781 Q95.5503,696.2344 94.8472,696.2344 Q92.3472,696.2344 91.019,694.5938 Q89.7065,692.9375 89.7065,689.8125 Q89.7065,686.6875 91.019,685.0313 Q92.3472,683.375 94.8472,683.375 Q95.5503,683.375 96.1909,683.5313 Q96.8472,683.6875 97.4097,683.9844 L97.4097,686.7031 Q96.7847,686.125 96.1909,685.8594 Q95.5972,685.5781 94.9722,685.5781 Q93.6284,685.5781 92.9409,686.6563 Q92.2534,687.7188 92.2534,689.8125 Q92.2534,691.9063 92.9409,692.9844 Q93.6284,694.0469 94.9722,694.0469 Q95.5972,694.0469 96.1909,693.7813 Q96.7847,693.5 97.4097,692.9219 L97.4097,695.6406 Z " fill="#000000"/><text fill="#000000" font-family="Verdana" font-size="14" lengthAdjust="spacing" textLength="49.1436" x="111.9409" y="694.8467">Cliente</text><line style="stroke:#000000;stroke-width:1;" x1="28" x2="217.5254" y1="704" y2="704"/><text fill="#000000" font-family="Verdana" font-size="14" lengthAdjust="spacing" textLength="111.6924" x="33" y="720.9951">-nAssociado: int</text><text fill="#000000" font-family="Verdana" font-size="14" lengthAdjust="spacing" textLength="95.6895" x="33" y="737.292">-nome: String</text><text fill="#000000" font-family="Verdana" font-size="14" lengthAdjust="spacing" textLength="134.8047" x="33" y="753.5889">-sobrenome: String</text><text fill="#000000" font-family="Verdana" font-size="14" lengthAdjust="spacing" textLength="113.5859" x="33" y="769.8857">-telefone: String</text><text fill="#000000" font-family="Verdana" font-size="14" lengthAdjust="spacing" textLength="121.6182" x="33" y="786.1826">-endereco: String</text><line style="stroke:#000000;stroke-width:1;" x1="28" x2="217.5254" y1="793.4844" y2="793.4844"/><text fill="#000000" font-family="Verdana" font-size="14" lengthAdjust="spacing" textLength="179.5254" x="33" y="810.4795">+equals(Object): boolean</text></g><!--class LocacaoAtiva--><g class="entity" data-entity="LocacaoAtiva" data-source-line="82" data-uid="ent0010" id="entity_LocacaoAtiva"><rect fill="#FFFFFF" height="141.7813" rx="2.5" ry="2.5" style="stroke:#000000;stroke-width:1;" width="165.0977" x="56.5" y="433"/><ellipse cx="89.2073" cy="447" fill="#FFFFFF" rx="9" ry="9" style="stroke:#000000;stroke-width:1;"/><path d="M92.176,452.6406 Q91.5979,452.9375 90.9573,453.0781 Q90.3167,453.2344 89.6135,453.2344 Q87.1135,453.2344 85.7854,451.5938 Q84.4729,449.9375 84.4729,446.8125 Q84.4729,443.6875 85.7854,442.0313 Q87.1135,440.375 89.6135,440.375 Q90.3167,440.375 90.9573,440.5313 Q91.6135,440.6875 92.176,440.9844 L92.176,443.7031 Q91.551,443.125 90.9573,442.8594 Q90.3635,442.5781 89.7385,442.5781 Q88.3948,442.5781 87.7073,443.6563 Q87.0198,444.7188 87.0198,446.8125 Q87.0198,448.9063 87.7073,449.9844 Q88.3948,451.0469 89.7385,451.0469 Q90.3635,451.0469 90.9573,450.7813 Q91.551,450.5 92.176,449.9219 L92.176,452.6406 Z " fill="#000000"/><text fill="#000000" font-family="Verdana" font-size="14" lengthAdjust="spacing" textLength="93.3037" x="105.5867" y="451.8467">LocacaoAtiva</text><line style="stroke:#000000;stroke-width:1;" x1="57.5" x2="220.5977" y1="461" y2="461"/><text fill="#000000" font-family="Verdana" font-size="14" lengthAdjust="spacing" textLength="110.4277" x="62.5" y="477.9951">-cliente: Cliente</text><text fill="#000000" font-family="Verdana" font-size="14" lengthAdjust="spacing" textLength="71.415" x="62.5" y="494.292">-dvd: DVD</text><text fill="#000000" font-family="Verdana" font-size="14" lengthAdjust="spacing" textLength="115.7461" x="62.5" y="510.5889">-data: LocalDate</text><line style="stroke:#000000;stroke-width:1;" x1="57.5" x2="220.5977" y1="517.8906" y2="517.8906"/><text fill="#000000" font-family="Verdana" font-size="14" lengthAdjust="spacing" textLength="153.0977" x="62.5" y="534.8857">+getCliente(): Cliente</text><text fill="#000000" font-family="Verdana" font-size="14" lengthAdjust="spacing" textLength="117.0859" x="62.5" y="551.1826">+getDVD(): DVD</text><text fill="#000000" font-family="Verdana" font-size="14" lengthAdjust="spacing" textLength="135.8711" x="62.5" y="567.4795">+finalizarLocacao()</text></g><!--class Categoria--><g class="entity" data-entity="Categoria" data-source-line="27" data-uid="ent0004" id="entity_Categoria"><rect fill="#FFFFFF" height="174.375" rx="2.5" ry="2.5" style="stroke:#000000;stroke-width:1;" width="96.1338" x="254" y="660"/><ellipse cx="267" cy="674" fill="#FFFFFF" rx="9" ry="9" style="stroke:#000000;stroke-width:1;"/><path d="M271.1094,680 L263.3906,680 L263.3906,667.6094 L271.1094,667.6094 L271.1094,669.7656 L265.8438,669.7656 L265.8438,672.4375 L270.6094,672.4375 L270.6094,674.5938 L265.8438,674.5938 L265.8438,677.8438 L271.1094,677.8438 L271.1094,680 Z " fill="#000000"/><text fill="#000000" font-family="Verdana" font-size="14" lengthAdjust="spacing" textLength="68.1338" x="279" y="678.8467">Categoria</text><line style="stroke:#000000;stroke-width:1;" x1="255" x2="349.1338" y1="688" y2="688"/><text fill="#000000" font-family="Verdana" font-size="14" lengthAdjust="spacing" textLength="66.2061" x="260" y="704.9951">COMEDIA</text><text fill="#000000" font-family="Verdana" font-size="14" lengthAdjust="spacing" textLength="51.7412" x="260" y="721.292">DRAMA</text><text fill="#000000" font-family="Verdana" font-size="14" lengthAdjust="spacing" textLength="76.5762" x="260" y="737.5889">AVENTURA</text><text fill="#000000" font-family="Verdana" font-size="14" lengthAdjust="spacing" textLength="39.9492" x="260" y="753.8857">ACAO</text><text fill="#000000" font-family="Verdana" font-size="14" lengthAdjust="spacing" textLength="57.5996" x="260" y="770.1826">TERROR</text><text fill="#000000" font-family="Verdana" font-size="14" lengthAdjust="spacing" textLength="52.3291" x="260" y="786.4795">FICCAO</text><text fill="#000000" font-family="Verdana" font-size="14" lengthAdjust="spacing" textLength="71.4971" x="260" y="802.7764">ROMANCE</text><text fill="#000000" font-family="Verdana" font-size="14" lengthAdjust="spacing" textLength="76.207" x="260" y="819.0732">ANIMACAO</text><line style="stroke:#000000;stroke-width:1;" x1="255" x2="349.1338" y1="826.375" y2="826.375"/></g><!--class Ator--><g class="entity" data-entity="Ator" data-source-line="38" data-uid="ent0006" id="entity_Ator"><rect fill="#FFFFFF" height="125.4844" rx="2.5" ry="2.5" style="stroke:#000000;stroke-width:1;" width="200.125" x="612" y="684.5"/><ellipse cx="693.6187" cy="698.5" fill="#FFFFFF" rx="9" ry="9" style="stroke:#000000;stroke-width:1;"/><path d="M696.5874,704.1406 Q696.0093,704.4375 695.3687,704.5781 Q694.728,704.7344 694.0249,704.7344 Q691.5249,704.7344 690.1968,703.0938 Q688.8843,701.4375 688.8843,698.3125 Q688.8843,695.1875 690.1968,693.5313 Q691.5249,691.875 694.0249,691.875 Q694.728,691.875 695.3687,692.0313 Q696.0249,692.1875 696.5874,692.4844 L696.5874,695.2031 Q695.9624,694.625 695.3687,694.3594 Q694.7749,694.0781 694.1499,694.0781 Q692.8062,694.0781 692.1187,695.1563 Q691.4312,696.2188 691.4312,698.3125 Q691.4312,700.4063 692.1187,701.4844 Q692.8062,702.5469 694.1499,702.5469 Q694.7749,702.5469 695.3687,702.2813 Q695.9624,702 696.5874,701.4219 L696.5874,704.1406 Z " fill="#000000"/><text fill="#000000" font-family="Verdana" font-size="14" lengthAdjust="spacing" textLength="29.3877" x="711.1187" y="703.3467">Ator</text><line style="stroke:#000000;stroke-width:1;" x1="613" x2="811.125" y1="712.5" y2="712.5"/><text fill="#000000" font-family="Verdana" font-size="14" lengthAdjust="spacing" textLength="45.2471" x="618" y="729.4951">-id: int</text><text fill="#000000" font-family="Verdana" font-size="14" lengthAdjust="spacing" textLength="126.499" x="618" y="745.792">-nomeReal: String</text><text fill="#000000" font-family="Verdana" font-size="14" lengthAdjust="spacing" textLength="107.3105" x="618" y="762.0889">-apelido: String</text><line style="stroke:#000000;stroke-width:1;" x1="613" x2="811.125" y1="769.3906" y2="769.3906"/><text fill="#000000" font-family="Verdana" font-size="14" lengthAdjust="spacing" textLength="188.125" x="618" y="786.3857">+getNomePublico(): String</text><text fill="#000000" font-family="Verdana" font-size="14" lengthAdjust="spacing" textLength="179.5254" x="618" y="802.6826">+equals(Object): boolean</text></g><!--class Filme--><g class="entity" data-entity="Filme" data-source-line="47" data-uid="ent0007" id="entity_Filme"><rect fill="#FFFFFF" height="158.0781" rx="2.5" ry="2.5" style="stroke:#000000;stroke-width:1;" width="191.5254" x="501" y="425"/><ellipse cx="573.9712" cy="439" fill="#FFFFFF" rx="9" ry="9" style="stroke:#000000;stroke-width:1;"/><path d="M576.9399,444.6406 Q576.3618,444.9375 575.7212,445.0781 Q575.0806,445.2344 574.3774,445.2344 Q571.8774,445.2344 570.5493,443.5938 Q569.2368,441.9375 569.2368,438.8125 Q569.2368,435.6875 570.5493,434.0313 Q571.8774,432.375 574.3774,432.375 Q575.0806,432.375 575.7212,432.5313 Q576.3774,432.6875 576.9399,432.9844 L576.9399,435.7031 Q576.3149,435.125 575.7212,434.8594 Q575.1274,434.5781 574.5024,434.5781 Q573.1587,434.5781 572.4712,435.6563 Q571.7837,436.7188 571.7837,438.8125 Q571.7837,440.9063 572.4712,441.9844 Q573.1587,443.0469 574.5024,443.0469 Q575.1274,443.0469 575.7212,442.7813 Q576.3149,442.5 576.9399,441.9219 L576.9399,444.6406 Z " fill="#000000"/><text fill="#000000" font-family="Verdana" font-size="14" lengthAdjust="spacing" textLength="38.083" x="591.4712" y="443.8467">Filme</text><line style="stroke:#000000;stroke-width:1;" x1="502" x2="691.5254" y1="453" y2="453"/><text fill="#000000" font-family="Verdana" font-size="14" lengthAdjust="spacing" textLength="45.2471" x="507" y="469.9951">-id: int</text><text fill="#000000" font-family="Verdana" font-size="14" lengthAdjust="spacing" textLength="92.1963" x="507" y="486.292">-titulo: String</text><text fill="#000000" font-family="Verdana" font-size="14" lengthAdjust="spacing" textLength="148.4082" x="507" y="502.5889">-categoria: Categoria</text><text fill="#000000" font-family="Verdana" font-size="14" lengthAdjust="spacing" textLength="135.8369" x="507" y="518.8857">-atores: List&lt;Ator&gt;</text><line style="stroke:#000000;stroke-width:1;" x1="502" x2="691.5254" y1="526.1875" y2="526.1875"/><text fill="#000000" font-family="Verdana" font-size="14" lengthAdjust="spacing" textLength="146.1455" x="507" y="543.1826">+adicionarAtor(Ator)</text><text fill="#000000" font-family="Verdana" font-size="14" lengthAdjust="spacing" textLength="177.4268" x="507" y="559.4795">+getAtores(): List&lt;Ator&gt;</text><text fill="#000000" font-family="Verdana" font-size="14" lengthAdjust="spacing" textLength="179.5254" x="507" y="575.7764">+equals(Object): boolean</text></g><!--class DVD--><g class="entity" data-entity="DVD" data-source-line="58" data-uid="ent0008" id="entity_DVD"><rect fill="#FFFFFF" height="141.7813" rx="2.5" ry="2.5" style="stroke:#000000;stroke-width:1;" width="191.5254" x="385" y="676"/><ellipse cx="461.4438" cy="690" fill="#FFFFFF" rx="9" ry="9" style="stroke:#000000;stroke-width:1;"/><path d="M464.4126,695.6406 Q463.8345,695.9375 463.1938,696.0781 Q462.5532,696.2344 461.8501,696.2344 Q459.3501,696.2344 458.022,694.5938 Q456.7095,692.9375 456.7095,689.8125 Q456.7095,686.6875 458.022,685.0313 Q459.3501,683.375 461.8501,683.375 Q462.5532,683.375 463.1938,683.5313 Q463.8501,683.6875 464.4126,683.9844 L464.4126,686.7031 Q463.7876,686.125 463.1938,685.8594 Q462.6001,685.5781 461.9751,685.5781 Q460.6313,685.5781 459.9438,686.6563 Q459.2563,687.7188 459.2563,689.8125 Q459.2563,691.9063 459.9438,692.9844 Q460.6313,694.0469 461.9751,694.0469 Q462.6001,694.0469 463.1938,693.7813 Q463.7876,693.5 464.4126,692.9219 L464.4126,695.6406 Z " fill="#000000"/><text fill="#000000" font-family="Verdana" font-size="14" lengthAdjust="spacing" textLength="31.1377" x="478.9438" y="694.8467">DVD</text><line style="stroke:#000000;stroke-width:1;" x1="386" x2="575.5254" y1="704" y2="704"/><text fill="#000000" font-family="Verdana" font-size="14" lengthAdjust="spacing" textLength="86.7891" x="391" y="720.9951">-numero: int</text><text fill="#000000" font-family="Verdana" font-size="14" lengthAdjust="spacing" textLength="87.2607" x="391" y="737.292">-filme: Filme</text><text fill="#000000" font-family="Verdana" font-size="14" lengthAdjust="spacing" textLength="141.2646" x="391" y="753.5889">-disponivel: boolean</text><line style="stroke:#000000;stroke-width:1;" x1="386" x2="575.5254" y1="760.8906" y2="760.8906"/><text fill="#000000" font-family="Verdana" font-size="14" lengthAdjust="spacing" textLength="171.9443" x="391" y="777.8857">+isDisponivel(): boolean</text><text fill="#000000" font-family="Verdana" font-size="14" lengthAdjust="spacing" textLength="172.9902" x="391" y="794.1826">+setDisponivel(boolean)</text><text fill="#000000" font-family="Verdana" font-size="14" lengthAdjust="spacing" textLength="179.5254" x="391" y="810.4795">+equals(Object): boolean</text></g><!--class SistemaLocadora--><g class="entity" data-entity="SistemaLocadora" data-source-line="7" data-uid="ent0002" id="entity_SistemaLocadora"><rect fill="#FFFFFF" height="288.4531" rx="2.5" ry="2.5" style="stroke:#000000;stroke-width:1;" width="315.9736" x="704" y="12"/><ellipse cx="797.8276" cy="26" fill="#FFFFFF" rx="9" ry="9" style="stroke:#000000;stroke-width:1;"/><path d="M800.7964,31.6406 Q800.2183,31.9375 799.5776,32.0781 Q798.937,32.2344 798.2339,32.2344 Q795.7339,32.2344 794.4058,30.5938 Q793.0933,28.9375 793.0933,25.8125 Q793.0933,22.6875 794.4058,21.0313 Q795.7339,19.375 798.2339,19.375 Q798.937,19.375 799.5776,19.5313 Q800.2339,19.6875 800.7964,19.9844 L800.7964,22.7031 Q800.1714,22.125 799.5776,21.8594 Q798.9839,21.5781 798.3589,21.5781 Q797.0151,21.5781 796.3276,22.6563 Q795.6401,23.7188 795.6401,25.8125 Q795.6401,27.9063 796.3276,28.9844 Q797.0151,30.0469 798.3589,30.0469 Q798.9839,30.0469 799.5776,29.7813 Q800.1714,29.5 800.7964,28.9219 L800.7964,31.6406 Z " fill="#000000"/><text fill="#000000" font-family="Verdana" font-size="14" lengthAdjust="spacing" textLength="120.8184" x="815.3276" y="30.8467">SistemaLocadora</text><line style="stroke:#000000;stroke-width:1;" x1="705" x2="1018.9736" y1="40" y2="40"/><text fill="#000000" font-family="Verdana" font-size="14" lengthAdjust="spacing" textLength="142.4883" x="710" y="56.9951">-filmes: List&lt;Filme&gt;</text><text fill="#000000" font-family="Verdana" font-size="14" lengthAdjust="spacing" textLength="126.6426" x="710" y="73.292">-dvds: List&lt;DVD&gt;</text><text fill="#000000" font-family="Verdana" font-size="14" lengthAdjust="spacing" textLength="135.8369" x="710" y="89.5889">-atores: List&lt;Ator&gt;</text><text fill="#000000" font-family="Verdana" font-size="14" lengthAdjust="spacing" textLength="165.6553" x="710" y="105.8857">-clientes: List&lt;Cliente&gt;</text><text fill="#000000" font-family="Verdana" font-size="14" lengthAdjust="spacing" textLength="259.4717" x="710" y="122.1826">-locacoesAtivas: List&lt;LocacaoAtiva&gt;</text><line style="stroke:#000000;stroke-width:1;" x1="705" x2="1018.9736" y1="129.4844" y2="129.4844"/><text fill="#000000" font-family="Verdana" font-size="14" lengthAdjust="spacing" textLength="165.4365" x="710" y="146.4795">+cadastrarFilme(Filme)</text><text fill="#000000" font-family="Verdana" font-size="14" lengthAdjust="spacing" textLength="148.0459" x="710" y="162.7764">+cadastrarAtor(Ator)</text><text fill="#000000" font-family="Verdana" font-size="14" lengthAdjust="spacing" textLength="149.6455" x="710" y="179.0732">+adicionarDVD(DVD)</text><text fill="#000000" font-family="Verdana" font-size="14" lengthAdjust="spacing" textLength="187.5576" x="710" y="195.3701">+cadastrarCliente(Cliente)</text><text fill="#000000" font-family="Verdana" font-size="14" lengthAdjust="spacing" textLength="291.8398" x="710" y="211.667">+buscarFilmesPorAtor(Ator): List&lt;Filme&gt;</text><text fill="#000000" font-family="Verdana" font-size="14" lengthAdjust="spacing" textLength="187.5371" x="710" y="227.9639">+alugarDVD(Cliente, DVD)</text><text fill="#000000" font-family="Verdana" font-size="14" lengthAdjust="spacing" textLength="145.8242" x="710" y="244.2607">+devolverDVD(DVD)</text><text fill="#000000" font-family="Verdana" font-size="14" lengthAdjust="spacing" textLength="252.5742" x="710" y="260.5576">+getDVDsDisponiveis(): List&lt;DVD&gt;</text><text fill="#000000" font-family="Verdana" font-size="14" lengthAdjust="spacing" textLength="186.2041" x="710" y="276.8545">+getFilmes(): List&lt;Filme&gt;</text><text fill="#000000" font-family="Verdana" font-size="14" lengthAdjust="spacing" textLength="303.9736" x="710" y="293.1514">+getLocacoesAtivas(): List&lt;LocacaoAtiva&gt;</text></g><!--reverse link Filme to DVD--><g class="link" data-entity-1="Filme" data-entity-2="DVD" data-source-line="94" data-uid="lnk11" id="link_Filme_DVD"><path codeLine="94" d="M554.1336,594.0617 C539.7736,623.8817 528.72,646.85 514.75,675.87" fill="none" id="Filme-backto-DVD" style="stroke:#000000;stroke-width:1;"/><polygon fill="#000000" points="559.34,583.25,553.1329,586.9204,554.1336,594.0617,560.3407,590.3913,559.34,583.25" style="stroke:#000000;stroke-width:1;"/><text fill="#000000" font-family="Verdana" font-size="13" lengthAdjust="spacing" textLength="49.0991" x="543" y="626.0669">cont&#233;m</text><text fill="#000000" font-family="Verdana" font-size="13" lengthAdjust="spacing" textLength="8.271" x="547.6629" y="603.0455">1</text><text fill="#000000" font-family="Verdana" font-size="13" lengthAdjust="spacing" textLength="23.0356" x="494.0708" y="664.8463">1..*</text></g><!--reverse link Filme to Ator--><g class="link" data-entity-1="Filme" data-entity-2="Ator" data-source-line="95" data-uid="lnk12" id="link_Filme_Ator"><path codeLine="95" d="M639.5083,594.08 C655.1183,626.79 667.83,653.42 682.49,684.16" fill="none" id="Filme-backto-Ator" style="stroke:#000000;stroke-width:1;"/><polygon fill="none" points="634.34,583.25,633.3142,590.3878,639.5083,594.08,640.5342,586.9422,634.34,583.25" style="stroke:#000000;stroke-width:1;"/><text fill="#000000" font-family="Verdana" font-size="13" lengthAdjust="spacing" textLength="41.6025" x="655" y="626.0669">possui</text><text fill="#000000" font-family="Verdana" font-size="13" lengthAdjust="spacing" textLength="8.271" x="629.3425" y="603.0455">1</text><text fill="#000000" font-family="Verdana" font-size="13" lengthAdjust="spacing" textLength="23.0356" x="654.9996" y="673.5142">0..*</text></g><!--link Filme to Categoria--><g class="link" data-entity-1="Filme" data-entity-2="Categoria" data-source-line="96" data-uid="lnk13" id="link_Filme_Categoria"><path codeLine="96" d="M500.83,580.36 C499.55,581.25 498.27,582.13 497,583 C441.9,620.72 417.88,615.61 368,660 C361.81,665.5 359.791,667.1798 354.081,673.5898" fill="none" id="Filme-to-Categoria" style="stroke:#000000;stroke-width:1;"/><polygon fill="#000000" points="350.09,678.07,359.0632,674.0103,353.4158,674.3365,353.0896,668.689,350.09,678.07" style="stroke:#000000;stroke-width:1;"/><text fill="#000000" font-family="Verdana" font-size="13" lengthAdjust="spacing" textLength="75.3911" x="443" y="626.0669">classificado</text><text fill="#000000" font-family="Verdana" font-size="13" lengthAdjust="spacing" textLength="8.271" x="484.8774" y="582.9164">1</text><text fill="#000000" font-family="Verdana" font-size="13" lengthAdjust="spacing" textLength="8.271" x="358.0768" y="663.415">1</text></g><!--reverse link SistemaLocadora to Filme--><g class="link" data-entity-1="SistemaLocadora" data-entity-2="Filme" data-source-line="98" data-uid="lnk14" id="link_SistemaLocadora_Filme"><path codeLine="98" d="M745.0026,309.7562 C712.3926,352.3262 685.19,387.86 657,424.66" fill="none" id="SistemaLocadora-backto-Filme" style="stroke:#000000;stroke-width:1;"/><polygon fill="none" points="752.3,300.23,745.4759,302.5606,745.0026,309.7562,751.8267,307.4256,752.3,300.23" style="stroke:#000000;stroke-width:1;"/><text fill="#000000" font-family="Verdana" font-size="13" lengthAdjust="spacing" textLength="8.271" x="738.0902" y="320.5859">1</text><text fill="#000000" font-family="Verdana" font-size="13" lengthAdjust="spacing" textLength="23.0356" x="638.3423" y="413.9951">1..*</text></g><!--reverse link SistemaLocadora to DVD--><g class="link" data-entity-1="SistemaLocadora" data-entity-2="DVD" data-source-line="99" data-uid="lnk15" id="link_SistemaLocadora_DVD"><path codeLine="99" d="M921.8729,311.5074 C952.7429,415.8974 967.09,542.4 888,630 C844.14,678.58 655.92,636.08 595,660 C584.27,664.21 573.68,669.73 563.52,675.95" fill="none" id="SistemaLocadora-backto-DVD" style="stroke:#000000;stroke-width:1;"/><polygon fill="none" points="918.47,300,916.3357,306.888,921.8729,311.5074,924.0073,304.6194,918.47,300" style="stroke:#000000;stroke-width:1;"/><text fill="#000000" font-family="Verdana" font-size="13" lengthAdjust="spacing" textLength="8.271" x="913.3476" y="320.3433">1</text><text fill="#000000" font-family="Verdana" font-size="13" lengthAdjust="spacing" textLength="23.0356" x="547.8702" y="664.9346">1..*</text></g><!--reverse link SistemaLocadora to Ator--><g class="link" data-entity-1="SistemaLocadora" data-entity-2="Ator" data-source-line="100" data-uid="lnk16" id="link_SistemaLocadora_Ator"><path codeLine="100" d="M953.5517,311.247 C957.4017,321.167 956.39,320.01 959,330 C992.7,459 1030.49,517.45 959,630 C926.68,680.89 865.46,709.85 812.06,726.11" fill="none" id="SistemaLocadora-backto-Ator" style="stroke:#000000;stroke-width:1;"/><polygon fill="none" points="949.21,300.06,947.6519,307.1008,953.5517,311.247,955.1099,304.2063,949.21,300.06" style="stroke:#000000;stroke-width:1;"/><text fill="#000000" font-family="Verdana" font-size="13" lengthAdjust="spacing" textLength="8.271" x="945.7687" y="320.4066">1</text><text fill="#000000" font-family="Verdana" font-size="13" lengthAdjust="spacing" textLength="23.0356" x="820.2494" y="721.0791">1..*</text></g><!--reverse link SistemaLocadora to Cliente--><g class="link" data-entity-1="SistemaLocadora" data-entity-2="Cliente" data-source-line="101" data-uid="lnk17" id="link_SistemaLocadora_Cliente"><path codeLine="101" d="M898.3814,311.961 C914.6914,418.171 913.15,546.62 828,630 C781.1,675.93 299.74,637.71 238,660 C226.74,664.06 215.67,669.63 205.1,675.98" fill="none" id="SistemaLocadora-backto-Cliente" style="stroke:#000000;stroke-width:1;"/><polygon fill="none" points="896.56,300.1,893.5171,306.6376,898.3814,311.961,901.4244,305.4233,896.56,300.1" style="stroke:#000000;stroke-width:1;"/><text fill="#000000" font-family="Verdana" font-size="13" lengthAdjust="spacing" textLength="8.271" x="890.2394" y="320.4488">1</text><text fill="#000000" font-family="Verdana" font-size="13" lengthAdjust="spacing" textLength="23.0356" x="189.4069" y="664.9676">1..*</text></g><!--reverse link SistemaLocadora to LocacaoAtiva--><g class="link" data-entity-1="SistemaLocadora" data-entity-2="LocacaoAtiva" data-source-line="102" data-uid="lnk18" id="link_SistemaLocadora_LocacaoAtiva"><path codeLine="102" d="M691.8157,172.6321 C556.2457,191.5921 373.84,234.5 238,339 C206.76,363.03 183.23,399.95 166.97,432.69" fill="none" id="SistemaLocadora-backto-LocacaoAtiva" style="stroke:#000000;stroke-width:1;"/><polygon fill="none" points="703.7,170.97,697.2038,167.8396,691.8157,172.6321,698.3119,175.7625,703.7,170.97" style="stroke:#000000;stroke-width:1;"/><text fill="#000000" font-family="Verdana" font-size="13" lengthAdjust="spacing" textLength="8.271" x="687.8458" y="168.391">1</text><text fill="#000000" font-family="Verdana" font-size="13" lengthAdjust="spacing" textLength="23.0356" x="145.5882" y="422.0163">0..*</text></g><!--link LocacaoAtiva to Cliente--><g class="link" data-entity-1="LocacaoAtiva" data-entity-2="Cliente" data-source-line="104" data-uid="lnk19" id="link_LocacaoAtiva_Cliente"><path codeLine="104" d="M134.35,575.03 C132.25,606.72 130.1685,638.1032 128.0585,669.8032" fill="none" id="LocacaoAtiva-to-Cliente" style="stroke:#000000;stroke-width:1;"/><polygon fill="#000000" points="127.66,675.79,132.2489,667.0755,127.9921,670.801,124.2666,666.5442,127.66,675.79" style="stroke:#000000;stroke-width:1;"/><text fill="#000000" font-family="Verdana" font-size="13" lengthAdjust="spacing" textLength="43.7036" x="133" y="626.0669">cliente</text><text fill="#000000" font-family="Verdana" font-size="13" lengthAdjust="spacing" textLength="8.271" x="125.507" y="594.8445">1</text><text fill="#000000" font-family="Verdana" font-size="13" lengthAdjust="spacing" textLength="8.271" x="119.7665" y="664.7581">1</text></g><!--link LocacaoAtiva to DVD--><g class="link" data-entity-1="LocacaoAtiva" data-entity-2="DVD" data-source-line="105" data-uid="lnk20" id="link_LocacaoAtiva_DVD"><path codeLine="105" d="M221.58,571.36 C227.08,575.37 232.59,579.29 238,583 C293.38,620.97 312.3,622.49 368,660 C375.46,665.03 378.2271,666.8692 385.8271,672.3292" fill="none" id="LocacaoAtiva-to-DVD" style="stroke:#000000;stroke-width:1;"/><polygon fill="#000000" points="390.7,675.83,385.7246,667.3303,386.6393,672.9127,381.0569,673.8274,390.7,675.83" style="stroke:#000000;stroke-width:1;"/><text fill="#000000" font-family="Verdana" font-size="13" lengthAdjust="spacing" textLength="24.1973" x="317" y="626.0669">dvd</text><text fill="#000000" font-family="Verdana" font-size="13" lengthAdjust="spacing" textLength="8.271" x="229.5696" y="573.9614">1</text><text fill="#000000" font-family="Verdana" font-size="13" lengthAdjust="spacing" textLength="8.271" x="373.0138" y="664.8022">1</text></g><!--SRC=[ZLNDRjim3BxxARHSvZHpqUre30MC90K2D4dXThqhDfjgbKNFadFei0VQS-p5HikIxRWDqW2nVlYP_4X-aZ-PPoY0bP8B5HWicK6sGsEmOBce83C2LH3e5w5ANl62xIkiovLwXaeOhZ9WtmR6J7Aj4sCgiQiDh39Kz-8Ls5KGM0kx5zf0mMynupbMdFqE6FqYzYHa0JfcjsJ_VjCihfqbF-H-V_6uyBlSODNX4rfuGoO5ADEPvktIMoN5pH28eJXmZsd8P1pjdWD6TfWnOicrgNXbAONsEHtRcl1Xy_0MdekCYiOh8XpI_yqRZbNeHc_VrJfpeVGT3lo-hGi5aVM-ZU2yV663K3aSK1vWp60FXbPw8NI9IXn0w70wBgv5jIJ2ToEJ-VQeZXriNCa_GL3ox8NlWKsaQ_bbqz29RJoekc1pRc2FbV1Qc6_NoyKgiVD5cgpRMVAut3pyIDrYdcpjv66PfjlKJczMSx-RRjV9PhviePlLsi6936lroPgYTj8JUSo4Ccwbi80Kk8pPFObOxRtUIf0Yn-FTg2_8XbwxgtTIPDXKOu2QCVXLSwd3xUud7IOoxX0bS7LCoLRu12SZJ2r7iKbChcvnNy8pXoCQw_EDSYcJnBxSjRH__OE9a8wwDAY_KE4m5NlEupPRVy2z6ENGuu2kwFKgm-anQCOqIRetEzlq8upVKsShp2uPTxJwX1AjCHCynx5cHjtHkAlWdNq34fvGZRT1vK1NxGbzVQZkmxFNyNMtOUmJwU_Kk6cKNt93AceSo0Nte86u_NKrFVRZhvDctpkRKOSLb-ALLuvGEBKyYUbdbeBaLda5EK4TjAAVV9smYoYYyVBoOc8553FwSfX_Vui111l8bONOynkp4hMknG0IHTTsxE-KkAsEU19DVuDW_Ftf7BUnMrsU0JMvde4q1CzXV2bFmjfSXtqDWgCk7wNib1hxdf-6jWKc3Vm7]--></g></svg>